<svg version="1.1" xmlns="http://www.w3.org/2000/svg" xmlns:xlink="http://www.w3.org/1999/xlink" width="800px" height="800px" viewBox="0,0,256,256"><g fill="#cd290c" fill-rule="nonzero" stroke="none" stroke-width="1" stroke-linecap="butt" stroke-linejoin="miter" stroke-miterlimit="10" stroke-dasharray="" stroke-dashoffset="0" font-family="none" font-weight="none" font-size="none" text-anchor="none" style="mix-blend-mode: normal"><g><g><g transform="scale(0.64,0.64)"><g id="XMLID_14_"><path d="M160,26.7h26.7h26.6v-26.7h-26.6h-26.7h-26.7h-26.6v26.7h26.6z" id="XMLID_15_"></path><path d="M106.7,53.3v-26.6h-26.7h-26.7v26.6h26.7z" id="XMLID_126_"></path><path d="M240,53.3h26.7v-26.6h-26.7h-26.7v26.6z" id="XMLID_127_"></path><path d="M53.3,80v-26.7h-26.6v26.7v26.7h26.6z" id="XMLID_128_"></path><path d="M266.7,106.7h26.6v-26.7v-26.7h-26.6v26.7z" id="XMLID_130_"></path><rect x="80" y="106.7" width="26.7" height="26.7" id="XMLID_131_"></rect><rect x="106.7" y="80" width="26.7" height="26.7" id="XMLID_132_"></rect><path d="M293.3,160v26.7v26.6h26.7v-26.6v-26.7v-26.7v-26.6h-26.7v26.6z" id="XMLID_133_"></path><path d="M26.7,160v-26.7v-26.6h-26.7v26.6v26.7v26.7v26.6h26.7v-26.6z" id="XMLID_134_"></path><path d="M53.3,213.3h-26.6v26.7v26.7h26.6v-26.7z" id="XMLID_135_"></path><path d="M293.3,240v-26.7h-26.6v26.7v26.7h26.6z" id="XMLID_136_"></path><path d="M80,266.7h-26.7v26.6h26.7h26.7v-26.6z" id="XMLID_137_"></path><path d="M213.3,266.7v26.6h26.7h26.7v-26.6h-26.7z" id="XMLID_138_"></path><path d="M160,293.3h-26.7h-26.6v26.7h26.6h26.7h26.7h26.6v-26.7h-26.6z" id="XMLID_139_"></path><rect x="293.3" y="293.3" width="26.7" height="26.7" id="XMLID_140_"></rect><rect x="320" y="320" width="26.7" height="26.7" id="XMLID_141_"></rect><rect x="346.7" y="346.7" width="26.7" height="26.7" id="XMLID_142_"></rect><rect x="373.3" y="373.3" width="26.7" height="26.7" id="XMLID_143_"></rect></g></g></g></g></g></svg>